Russolo-10ptExtraBold.ufo
<glyph name="quotedbl" format="2">
  <advance width="850"/>
  <unicode hex="0022"/>
  <note>
quotedbl
</note>
  <outline>
    <contour>
      <point x="500" y="757" type="line"/>
      <point x="708" y="757" type="line"/>
      <point x="734" y="1368" type="line"/>
      <point x="480" y="1368" type="line"/>
    </contour>
    <contour>
      <point x="138" y="757" type="line"/>
      <point x="344" y="757" type="line"/>
      <point x="371" y="1368" type="line"/>
      <point x="117" y="1368" type="line"/>
    </contour>
  </outline>
</glyph>
<glyph name="A" format="2">
  <advance width="1690"/>
  <unicode hex="0041"/>
  <note>
A
</note>
  <anchor x="844" y="50" name="bottom"/>
  <anchor x="1252" y="0" name="ogonek"/>
  <anchor x="844" y="1430" name="top"/>
  <outline>
    <contour>
      <point x="99" y="0" type="line"/>
      <point x="298" y="0" type="line"/>
      <point x="760" y="942" type="line"/>
      <point x="734" y="956" type="line"/>
      <point x="1180" y="0" type="line"/>
      <point x="1591" y="0" type="line"/>
      <point x="842" y="1479" type="line"/>
    </contour>
    <contour>
      <point x="321" y="313" type="line"/>
      <point x="1163" y="313" type="line"/>
      <point x="1083" y="519" type="line"/>
      <point x="410" y="519" type="line"/>
    </contour>
  </outline>
</glyph>
<glyph name="D" format="2">
  <advance width="1597"/>
  <unicode hex="0044"/>
  <note>
D
</note>
  <anchor x="813" y="0" name="bottom"/>
  <anchor x="333" y="715" name="center"/>
  <anchor x="813" y="1430" name="top"/>
  <outline>
    <contour>
      <point x="138" y="1" type="line"/>
      <point x="621" y="1" type="line" smooth="yes"/>
      <point x="955" y="1"/>
      <point x="1037" y="14"/>
      <point x="1217" y="140" type="curve" smooth="yes"/>
      <point x="1348" y="232"/>
      <point x="1489" y="428"/>
      <point x="1489" y="718" type="curve" smooth="yes"/>
      <point x="1489" y="954"/>
      <point x="1386" y="1164"/>
      <point x="1254" y="1273" type="curve" smooth="yes"/>
      <point x="1069" y="1425"/>
      <point x="986" y="1436"/>
      <point x="557" y="1436" type="curve" smooth="yes"/>
      <point x="138" y="1436" type="line"/>
    </contour>
    <contour>
      <point x="533" y="0" type="line"/>
      <point x="533" y="1437" type="line"/>
      <point x="200" y="1243" type="line"/>
      <point x="562" y="1243" type="line" smooth="yes"/>
      <point x="940" y="1243"/>
      <point x="1112" y="1109"/>
      <point x="1112" y="725" type="curve" smooth="yes"/>
      <point x="1112" y="338"/>
      <point x="933" y="194"/>
      <point x="563" y="194" type="curve" smooth="yes"/>
      <point x="200" y="194" type="line"/>
    </contour>
  </outline>
</glyph>
<glyph name="E" format="2">
  <advance width="1304"/>
  <unicode hex="0045"/>
  <note>
E
</note>
  <anchor x="624" y="50" name="bottom"/>
  <anchor x="1118" y="0" name="ogonek"/>
  <anchor x="674" y="1430" name="top"/>
  <anchor x="26" y="1430" name="topleft"/>
  <outline>
    <contour>
      <point x="138" y="0" type="line"/>
      <point x="1187" y="0" type="line"/>
      <point x="1187" y="193" type="line"/>
      <point x="315" y="193" type="line"/>
      <point x="525" y="7" type="line"/>
      <point x="525" y="824" type="line"/>
      <point x="240" y="635" type="line"/>
      <point x="1187" y="635" type="line"/>
      <point x="1187" y="828" type="line"/>
      <point x="315" y="828" type="line"/>
      <point x="525" y="642" type="line"/>
      <point x="525" y="1426" type="line"/>
      <point x="192" y="1244" type="line"/>
      <point x="1187" y="1244" type="line"/>
      <point x="1187" y="1437" type="line"/>
      <point x="138" y="1437" type="line"/>
    </contour>
  </outline>
</glyph>
<glyph name="G" format="2">
  <advance width="1779"/>
  <unicode hex="0047"/>
  <note>
G
</note>
  <anchor x="880" y="50" name="bottom"/>
  <anchor x="880" y="1430" name="top"/>
  <outline>
    <contour>
      <point x="896" y="-44" type="curve" smooth="yes"/>
      <point x="1326" y="-44"/>
      <point x="1650" y="249"/>
      <point x="1677" y="660" type="curve"/>
      <point x="1293" y="660" type="line"/>
      <point x="1280" y="342"/>
      <point x="1123" y="143"/>
      <point x="893" y="143" type="curve"/>
      <point x="650" y="143"/>
      <point x="490" y="366"/>
      <point x="490" y="708" type="curve" smooth="yes"/>
      <point x="490" y="1051"/>
      <point x="651" y="1279"/>
      <point x="894" y="1279" type="curve"/>
      <point x="1059" y="1279"/>
      <point x="1180" y="1181"/>
      <point x="1246" y="994" type="curve"/>
      <point x="1626" y="994" type="line"/>
      <point x="1530" y="1270"/>
      <point x="1210" y="1466"/>
      <point x="893" y="1466" type="curve" smooth="yes"/>
      <point x="455" y="1466"/>
      <point x="108" y="1129"/>
      <point x="108" y="713" type="curve" smooth="yes"/>
      <point x="108" y="277"/>
      <point x="437" y="-44"/>
    </contour>
    <contour>
      <point x="962" y="467" type="line"/>
      <point x="1514" y="467" type="line"/>
      <point x="1514" y="660" type="line"/>
      <point x="962" y="660" type="line"/>
    </contour>
  </outline>
</glyph>
<glyph name="K" format="2">
  <advance width="1651"/>
  <unicode hex="004B"/>
  <note>
K
</note>
  <anchor x="744" y="50" name="bottom"/>
  <anchor x="744" y="1430" name="top"/>
  <outline>
    <contour>
      <point x="138" y="0" type="line"/>
      <point x="525" y="0" type="line"/>
      <point x="525" y="1437" type="line"/>
      <point x="138" y="1437" type="line"/>
    </contour>
    <contour>
      <point x="516" y="440" type="line"/>
      <point x="1443" y="1437" type="line"/>
      <point x="1123" y="1437" type="line"/>
      <point x="302" y="536" type="line"/>
    </contour>
    <contour>
      <point x="1118" y="0" type="line"/>
      <point x="1552" y="0" type="line"/>
      <point x="867" y="909" type="line"/>
      <point x="596" y="698" type="line"/>
    </contour>
  </outline>
</glyph>
<glyph name="O" format="2">
  <advance width="1782"/>
  <unicode hex="004F"/>
  <note>
O
</note>
  <anchor x="891" y="0" name="bottom"/>
  <anchor x="891" y="715" name="center"/>
  <anchor x="1082" y="0" name="ogonek"/>
  <anchor x="891" y="1430" name="top"/>
  <anchor x="64" y="1430" name="topleft"/>
  <anchor x="1448" y="1430" name="topright"/>
  <outline>
    <contour>
      <point x="891" y="-44" type="curve" smooth="yes"/>
      <point x="1339" y="-44"/>
      <point x="1675" y="285"/>
      <point x="1675" y="712" type="curve" smooth="yes"/>
      <point x="1675" y="1138"/>
      <point x="1340" y="1467"/>
      <point x="892" y="1467" type="curve" smooth="yes"/>
      <point x="444" y="1467"/>
      <point x="108" y="1138"/>
      <point x="108" y="711" type="curve" smooth="yes"/>
      <point x="108" y="285"/>
      <point x="443" y="-44"/>
    </contour>
    <contour>
      <point x="891" y="145" type="curve"/>
      <point x="651" y="145"/>
      <point x="491" y="372"/>
      <point x="491" y="712" type="curve" smooth="yes"/>
      <point x="491" y="1052"/>
      <point x="650" y="1278"/>
      <point x="892" y="1278" type="curve"/>
      <point x="1132" y="1278"/>
      <point x="1292" y="1051"/>
      <point x="1292" y="711" type="curve" smooth="yes"/>
      <point x="1292" y="371"/>
      <point x="1133" y="145"/>
    </contour>
  </outline>
</glyph>
<glyph name="P" format="2">
  <advance width="1343"/>
  <unicode hex="0050"/>
  <note>
P
</note>
  <anchor x="643" y="50" name="bottom"/>
  <anchor x="643" y="1430" name="top"/>
  <outline>
    <contour>
      <point x="138" y="0" type="line"/>
      <point x="514" y="0" type="line"/>
      <point x="514" y="612" type="line"/>
      <point x="338" y="478" type="line"/>
      <point x="695" y="478" type="line" smooth="yes"/>
      <point x="834" y="478"/>
      <point x="939" y="508"/>
      <point x="1050" y="578" type="curve" smooth="yes"/>
      <point x="1157" y="645"/>
      <point x="1238" y="809"/>
      <point x="1238" y="957" type="curve" smooth="yes"/>
      <point x="1238" y="1089"/>
      <point x="1183" y="1215"/>
      <point x="1096" y="1287" type="curve" smooth="yes"/>
      <point x="969" y="1391"/>
      <point x="833" y="1437"/>
      <point x="643" y="1437" type="curve" smooth="yes"/>
      <point x="138" y="1437" type="line"/>
    </contour>
    <contour>
      <point x="514" y="506" type="line"/>
      <point x="514" y="1419" type="line"/>
      <point x="181" y="1261" type="line"/>
      <point x="647" y="1261" type="line" smooth="yes"/>
      <point x="782" y="1261"/>
      <point x="861" y="1145"/>
      <point x="861" y="936" type="curve" smooth="yes"/>
      <point x="861" y="838"/>
      <point x="807" y="667"/>
      <point x="647" y="667" type="curve" smooth="yes"/>
      <point x="424" y="667" type="line"/>
    </contour>
  </outline>
</glyph>
<glyph name="Y" format="2">
  <advance width="1469"/>
  <unicode hex="0059"/>
  <note>
Y
</note>
  <anchor x="764" y="50" name="bottom"/>
  <anchor x="734" y="1430" name="top"/>
  <anchor x="-7" y="1430" name="topleft"/>
  <outline>
    <contour>
      <point x="567" y="0" type="line"/>
      <point x="953" y="0" type="line"/>
      <point x="953" y="594" type="line"/>
      <point x="1369" y="1437" type="line"/>
      <point x="1130" y="1437" type="line"/>
      <point x="660" y="447" type="line"/>
      <point x="914" y="736" type="line"/>
      <point x="544" y="1437" type="line"/>
      <point x="99" y="1437" type="line"/>
      <point x="567" y="594" type="line"/>
    </contour>
  </outline>
</glyph>
<glyph name="a" format="2">
  <advance width="1411"/>
  <unicode hex="0061"/>
  <note>
a
</note>
  <anchor x="635" y="20" name="bottom"/>
  <anchor x="1166" y="0" name="ogonek"/>
  <anchor x="645" y="1026" name="top"/>
  <outline>
    <contour>
      <point x="593" y="-42" type="curve" smooth="yes"/>
      <point x="846" y="-42"/>
      <point x="985" y="82"/>
      <point x="1038" y="353" type="curve"/>
      <point x="943" y="434" type="line"/>
      <point x="943" y="0" type="line"/>
      <point x="1305" y="0" type="line"/>
      <point x="1305" y="1016" type="line"/>
      <point x="939" y="1016" type="line"/>
      <point x="939" y="567" type="line"/>
      <point x="1031" y="639" type="line"/>
      <point x="986" y="909"/>
      <point x="837" y="1043"/>
      <point x="587" y="1043" type="curve" smooth="yes"/>
      <point x="279" y="1043"/>
      <point x="80" y="826"/>
      <point x="80" y="494" type="curve" smooth="yes"/>
      <point x="80" y="169"/>
      <point x="282" y="-42"/>
    </contour>
    <contour>
      <point x="650" y="163" type="curve" smooth="yes"/>
      <point x="503" y="163"/>
      <point x="427" y="260"/>
      <point x="427" y="498" type="curve" smooth="yes"/>
      <point x="427" y="737"/>
      <point x="502" y="838"/>
      <point x="645" y="838" type="curve" smooth="yes"/>
      <point x="788" y="838"/>
      <point x="890" y="678"/>
      <point x="890" y="490" type="curve" smooth="yes"/>
      <point x="890" y="314"/>
      <point x="793" y="163"/>
    </contour>
  </outline>
</glyph>
<glyph name="g" format="2">
  <advance width="1414"/>
  <unicode hex="0067"/>
  <note>
g
</note>
  <anchor x="707" y="-456" name="bottom"/>
  <anchor x="667" y="1026" name="top"/>
  <outline>
    <contour>
      <point x="699" y="-582" type="curve" smooth="yes"/>
      <point x="1101" y="-582"/>
      <point x="1306" y="-313"/>
      <point x="1306" y="137" type="curve" smooth="yes"/>
      <point x="1306" y="1016" type="line"/>
      <point x="940" y="1016" type="line"/>
      <point x="940" y="714" type="line"/>
      <point x="995" y="781" type="line"/>
      <point x="925" y="956"/>
      <point x="790" y="1043"/>
      <point x="588" y="1043" type="curve" smooth="yes"/>
      <point x="280" y="1043"/>
      <point x="81" y="826"/>
      <point x="81" y="494" type="curve" smooth="yes"/>
      <point x="81" y="169"/>
      <point x="283" y="-44"/>
      <point x="594" y="-44" type="curve" smooth="yes"/>
      <point x="799" y="-44"/>
      <point x="929" y="38"/>
      <point x="999" y="215" type="curve"/>
      <point x="944" y="281" type="line"/>
      <point x="944" y="68" type="line"/>
      <point x="944" y="-203"/>
      <point x="849" y="-379"/>
      <point x="670" y="-379" type="curve" smooth="yes"/>
      <point x="504" y="-379"/>
      <point x="474" y="-331"/>
      <point x="438" y="-228" type="curve"/>
      <point x="106" y="-228" type="line"/>
      <point x="201" y="-479"/>
      <point x="368" y="-582"/>
    </contour>
    <contour>
      <point x="638" y="161" type="curve" smooth="yes"/>
      <point x="500" y="161"/>
      <point x="428" y="260"/>
      <point x="428" y="498" type="curve" smooth="yes"/>
      <point x="428" y="737"/>
      <point x="499" y="839"/>
      <point x="633" y="839" type="curve" smooth="yes"/>
      <point x="768" y="839"/>
      <point x="864" y="678"/>
      <point x="864" y="490" type="curve" smooth="yes"/>
      <point x="864" y="314"/>
      <point x="773" y="161"/>
    </contour>
  </outline>
</glyph>
<glyph name="h" format="2">
  <advance width="1281"/>
  <unicode hex="0068"/>
  <note>
h
</note>
  <anchor x="637" y="0" name="bottom"/>
  <anchor x="315" y="1340" name="center"/>
  <anchor x="637" y="1524" name="top"/>
  <outline>
    <contour>
      <point x="112" y="0" type="line"/>
      <point x="490" y="0" type="line"/>
      <point x="490" y="587" type="line" smooth="yes"/>
      <point x="490" y="702"/>
      <point x="566" y="834"/>
      <point x="666" y="834" type="curve" smooth="yes"/>
      <point x="744" y="834"/>
      <point x="806" y="755"/>
      <point x="806" y="543" type="curve" smooth="yes"/>
      <point x="806" y="0" type="line"/>
      <point x="1184" y="0" type="line"/>
      <point x="1184" y="636" type="line" smooth="yes"/>
      <point x="1184" y="884"/>
      <point x="1025" y="1041"/>
      <point x="759" y="1041" type="curve" smooth="yes"/>
      <point x="555" y="1041"/>
      <point x="461" y="949"/>
      <point x="397" y="693" type="curve"/>
      <point x="489" y="424" type="line"/>
      <point x="493" y="1524" type="line"/>
      <point x="112" y="1524" type="line"/>
    </contour>
  </outline>
</glyph>
<glyph name="n" format="2">
  <advance width="1275"/>
  <unicode hex="006E"/>
  <note>
n
</note>
  <anchor x="631" y="0" name="bottom"/>
  <anchor x="631" y="1026" name="top"/>
  <outline>
    <contour>
      <point x="106" y="0" type="line"/>
      <point x="484" y="0" type="line"/>
      <point x="484" y="587" type="line" smooth="yes"/>
      <point x="484" y="702"/>
      <point x="560" y="834"/>
      <point x="660" y="834" type="curve" smooth="yes"/>
      <point x="738" y="834"/>
      <point x="800" y="755"/>
      <point x="800" y="543" type="curve" smooth="yes"/>
      <point x="800" y="0" type="line"/>
      <point x="1178" y="0" type="line"/>
      <point x="1178" y="636" type="line" smooth="yes"/>
      <point x="1178" y="884"/>
      <point x="1019" y="1043"/>
      <point x="753" y="1043" type="curve" smooth="yes"/>
      <point x="549" y="1043"/>
      <point x="455" y="949"/>
      <point x="391" y="693" type="curve"/>
      <point x="480" y="424" type="line"/>
      <point x="484" y="1016" type="line"/>
      <point x="106" y="1016" type="line"/>
    </contour>
  </outline>
</glyph>
<glyph name="o" format="2">
  <advance width="1301"/>
  <unicode hex="006F"/>
  <note>
o
</note>
  <anchor x="651" y="20" name="bottom"/>
  <anchor x="651" y="503" name="center"/>
  <anchor x="812" y="0" name="ogonek"/>
  <anchor x="651" y="1026" name="top"/>
  <anchor x="1302" y="1006" name="topright"/>
  <outline>
    <contour>
      <point x="651" y="-42" type="curve" smooth="yes"/>
      <point x="1000" y="-42"/>
      <point x="1221" y="168"/>
      <point x="1221" y="496" type="curve" smooth="yes"/>
      <point x="1221" y="825"/>
      <point x="995" y="1043"/>
      <point x="651" y="1043" type="curve" smooth="yes"/>
      <point x="306" y="1043"/>
      <point x="80" y="825"/>
      <point x="80" y="496" type="curve" smooth="yes"/>
      <point x="80" y="168"/>
      <point x="302" y="-42"/>
    </contour>
    <contour>
      <point x="651" y="160" type="curve" smooth="yes"/>
      <point x="543" y="160"/>
      <point x="464" y="305"/>
      <point x="464" y="495" type="curve" smooth="yes"/>
      <point x="464" y="689"/>
      <point x="544" y="841"/>
      <point x="651" y="841" type="curve" smooth="yes"/>
      <point x="759" y="841"/>
      <point x="840" y="682"/>
      <point x="840" y="496" type="curve" smooth="yes"/>
      <point x="840" y="307"/>
      <point x="759" y="160"/>
    </contour>
  </outline>
</glyph>
<glyph name="w" format="2">
  <advance width="1955"/>
  <unicode hex="0077"/>
  <note>
w
</note>
  <anchor x="978" y="0" name="bottom"/>
  <anchor x="978" y="1016" name="top"/>
  <outline>
    <contour>
      <point x="1219" y="-25" type="line"/>
      <point x="1331" y="-25" type="line"/>
      <point x="1884" y="1016" type="line"/>
      <point x="1661" y="1016" type="line"/>
      <point x="1342" y="401" type="line"/>
      <point x="1434" y="364" type="line"/>
      <point x="1066" y="1016" type="line"/>
      <point x="677" y="1016" type="line"/>
    </contour>
    <contour>
      <point x="613" y="-25" type="line"/>
      <point x="724" y="-25" type="line"/>
      <point x="1067" y="676" type="line"/>
      <point x="955" y="899" type="line"/>
      <point x="729" y="401" type="line"/>
      <point x="787" y="363" type="line"/>
      <point x="460" y="1016" type="line"/>
      <point x="71" y="1016" type="line"/>
    </contour>
    <contour>
      <point x="1117" y="736" type="line"/>
      <point x="1267" y="1016" type="line"/>
      <point x="1039" y="1016" type="line"/>
      <point x="947" y="854" type="line"/>
    </contour>
  </outline>
</glyph>
<glyph name="x" format="2">
  <advance width="1341"/>
  <unicode hex="0078"/>
  <note>
x
</note>
  <anchor x="671" y="70" name="bottom"/>
  <anchor x="671" y="1006" name="top"/>
  <outline>
    <contour>
      <point x="837" y="0" type="line"/>
      <point x="1271" y="0" type="line"/>
      <point x="504" y="1016" type="line"/>
      <point x="70" y="1016" type="line"/>
    </contour>
    <contour>
      <point x="115" y="0" type="line"/>
      <point x="386" y="0" type="line"/>
      <point x="714" y="413" type="line"/>
      <point x="601" y="601" type="line"/>
    </contour>
    <contour>
      <point x="751" y="435" type="line"/>
      <point x="1223" y="1016" type="line"/>
      <point x="953" y="1016" type="line"/>
      <point x="622" y="605" type="line"/>
    </contour>
  </outline>
</glyph>
<glyph name="degree" format="2">
  <advance width="921"/>
  <unicode hex="00B0"/>
  <note>
degree
</note>
  <outline>
    <contour>
      <point x="461" y="782" type="curve" smooth="yes"/>
      <point x="638" y="782"/>
      <point x="783" y="927"/>
      <point x="783" y="1105" type="curve" smooth="yes"/>
      <point x="783" y="1282"/>
      <point x="638" y="1427"/>
      <point x="461" y="1427" type="curve" smooth="yes"/>
      <point x="283" y="1427"/>
      <point x="138" y="1282"/>
      <point x="138" y="1105" type="curve" smooth="yes"/>
      <point x="138" y="927"/>
      <point x="283" y="782"/>
    </contour>
    <contour>
      <point x="461" y="909" type="curve" smooth="yes"/>
      <point x="352" y="909"/>
      <point x="265" y="996"/>
      <point x="265" y="1105" type="curve" smooth="yes"/>
      <point x="265" y="1213"/>
      <point x="352" y="1300"/>
      <point x="461" y="1300" type="curve" smooth="yes"/>
      <point x="569" y="1300"/>
      <point x="656" y="1213"/>
      <point x="656" y="1105" type="curve" smooth="yes"/>
      <point x="656" y="996"/>
      <point x="569" y="909"/>
    </contour>
  </outline>
</glyph>
<glyph name="idotless" format="2">
  <advance width="573"/>
  <unicode hex="0131"/>
  <note>
dotlessi
</note>
  <anchor x="287" y="0" name="bottom"/>
  <anchor x="343" y="0" name="ogonek"/>
  <anchor x="287" y="1016" name="top"/>
  <outline>
    <contour>
      <point x="106" y="0" type="line"/>
      <point x="467" y="0" type="line"/>
      <point x="467" y="1016" type="line"/>
      <point x="106" y="1016" type="line"/>
    </contour>
  </outline>
</glyph>
<glyph name="lslash" format="2">
  <advance width="1050"/>
  <unicode hex="0142"/>
  <outline>
    <contour>
      <point x="348" y="0" type="line"/>
      <point x="710" y="0" type="line"/>
      <point x="710" y="1524" type="line"/>
      <point x="348" y="1524" type="line"/>
    </contour>
    <contour>
      <point x="177" y="432" type="line"/>
      <point x="980" y="887" type="line"/>
      <point x="875" y="1056" type="line"/>
      <point x="70" y="602" type="line"/>
    </contour>
  </outline>
</glyph>
<glyph name="Schwa" format="2">
  <advance width="1742"/>
  <unicode hex="018F"/>
  <anchor x="871" y="50" name="bottom"/>
  <anchor x="871" y="1430" name="top"/>
  <outline>
    <contour>
      <point x="846" y="-44" type="curve" smooth="yes"/>
      <point x="1305" y="-44"/>
      <point x="1634" y="277"/>
      <point x="1634" y="713" type="curve" smooth="yes"/>
      <point x="1634" y="1129"/>
      <point x="1287" y="1466"/>
      <point x="849" y="1466" type="curve" smooth="yes"/>
      <point x="532" y="1466"/>
      <point x="212" y="1270"/>
      <point x="136" y="994" type="curve"/>
      <point x="486" y="994" type="line"/>
      <point x="562" y="1181"/>
      <point x="683" y="1279"/>
      <point x="848" y="1279" type="curve"/>
      <point x="1091" y="1279"/>
      <point x="1252" y="1051"/>
      <point x="1252" y="708" type="curve" smooth="yes"/>
      <point x="1252" y="366"/>
      <point x="1092" y="143"/>
      <point x="849" y="143" type="curve"/>
      <point x="619" y="143"/>
      <point x="472" y="342"/>
      <point x="459" y="720" type="curve"/>
      <point x="105" y="720" type="line"/>
      <point x="92" y="249"/>
      <point x="416" y="-44"/>
    </contour>
    <contour>
      <point x="369" y="527" type="line"/>
      <point x="1309" y="527" type="line"/>
      <point x="1309" y="720" type="line"/>
      <point x="369" y="720" type="line"/>
    </contour>
  </outline>
</glyph>
<glyph name="jdotless" format="2">
  <advance width="585"/>
  <unicode hex="0237"/>
  <anchor x="293" y="-456" name="bottom"/>
  <anchor x="293" y="1006" name="top"/>
  <outline>
    <contour>
      <point x="46" y="-583" type="curve" smooth="yes"/>
      <point x="321" y="-583"/>
      <point x="473" y="-447"/>
      <point x="473" y="-104" type="curve" smooth="yes"/>
      <point x="473" y="1016" type="line"/>
      <point x="111" y="1016" type="line"/>
      <point x="111" y="11" type="line" smooth="yes"/>
      <point x="111" y="-148"/>
      <point x="165" y="-381"/>
      <point x="49" y="-381" type="curve" smooth="yes"/>
      <point x="46" y="-381"/>
      <point x="-64" y="-381"/>
      <point x="-64" y="-321" type="curve" smooth="yes"/>
      <point x="-64" y="-310"/>
      <point x="-64" y="-292"/>
      <point x="-50" y="-249" type="curve"/>
      <point x="-289" y="-249" type="line"/>
      <point x="-291" y="-275"/>
      <point x="-291" y="-318"/>
      <point x="-291" y="-318" type="curve" smooth="yes"/>
      <point x="-291" y="-531"/>
      <point x="-124" y="-583"/>
    </contour>
  </outline>
</glyph>
<glyph name="acutecomb" format="2">
  <unicode hex="0301"/>
  <note>
acute
</note>
  <anchor x="309" y="986" name="_top"/>
  <anchor x="309" y="1435" name="top"/>
  <outline>
    <contour>
      <point x="108" y="1105" type="curve"/>
      <point x="229" y="1105" type="line"/>
      <point x="349" y="1219"/>
      <point x="460" y="1356"/>
      <point x="509" y="1425" type="curve"/>
      <point x="230" y="1425" type="line"/>
      <point x="186" y="1349"/>
      <point x="157" y="1265"/>
    </contour>
  </outline>
</glyph>
<glyph name="macroncomb" format="2">
  <unicode hex="0304"/>
  <note>
macron
</note>
  <anchor x="485" y="986" name="_top"/>
  <anchor x="485" y="1287" name="top"/>
  <outline>
    <contour>
      <point x="97" y="1154" type="line"/>
      <point x="873" y="1154" type="line"/>
      <point x="873" y="1277" type="line"/>
      <point x="97" y="1277" type="line"/>
    </contour>
  </outline>
</glyph>
<glyph name="horncomb" format="2">
  <unicode hex="031B"/>
  <anchor x="396" y="1306" name="_topright"/>
  <anchor x="407" y="1401" name="topright"/>
  <outline>
    <contour>
      <point x="387" y="1401" type="curve"/>
      <point x="259" y="1401" type="line"/>
      <point x="257" y="1353"/>
      <point x="260" y="1224"/>
      <point x="126" y="1217" type="curve"/>
      <point x="126" y="1131" type="line"/>
      <point x="256" y="1129"/>
      <point x="386" y="1225"/>
    </contour>
  </outline>
</glyph>
<glyph name="strokeshortcomb" format="2">
  <unicode hex="0335"/>
  <anchor x="484" y="781" name="_center"/>
  <outline>
    <contour>
      <point x="0" y="716" type="line"/>
      <point x="967" y="716" type="line"/>
      <point x="967" y="846" type="line"/>
      <point x="0" y="846" type="line"/>
    </contour>
  </outline>
</glyph>
<glyph name="strokelongcomb" format="2">
  <unicode hex="0336"/>
  <anchor x="530.5" y="751.0" name="_center"/>
  <outline>
    <contour>
      <point x="60" y="716" type="line"/>
      <point x="1001" y="716" type="line"/>
      <point x="1001" y="786" type="line"/>
      <point x="60" y="786" type="line"/>
    </contour>
  </outline>
</glyph>
<glyph name="slashlongcomb" format="2">
  <unicode hex="0338"/>
  <anchor x="427.5" y="468.5" name="_center"/>
  <outline>
    <contour>
      <point x="12" y="-115" type="line"/>
      <point x="149" y="-115" type="line"/>
      <point x="843" y="1052" type="line"/>
      <point x="707" y="1052" type="line"/>
    </contour>
  </outline>
</glyph>
<glyph name="Ii-cy" format="2">
  <advance width="1609"/>
  <unicode hex="0418"/>
  <anchor x="804" y="50" name="bottom"/>
  <anchor x="1589" y="0" name="bottomright"/>
  <anchor x="805" y="1437" name="top"/>
  <outline>
    <contour>
      <point x="1458" y="0" type="line"/>
      <point x="1471" y="1437" type="line"/>
      <point x="1170" y="1437" type="line"/>
      <point x="257" y="370" type="line"/>
      <point x="437" y="345" type="line"/>
      <point x="437" y="1437" type="line"/>
      <point x="138" y="1437" type="line"/>
      <point x="138" y="0" type="line"/>
      <point x="444" y="0" type="line"/>
      <point x="1368" y="1054" type="line"/>
      <point x="1162" y="960" type="line"/>
      <point x="1162" y="0" type="line"/>
    </contour>
  </outline>
</glyph>
<glyph name="Ka-cy" format="2">
  <advance width="1599"/>
  <unicode hex="041A"/>
  <anchor x="1614" y="0" name="bottomright"/>
  <anchor x="809" y="1437" name="top"/>
  <outline>
    <contour>
      <point x="138" y="0" type="line"/>
      <point x="525" y="0" type="line"/>
      <point x="525" y="1430" type="line"/>
      <point x="138" y="1430" type="line"/>
    </contour>
    <contour>
      <point x="726" y="654" type="line"/>
      <point x="1450" y="1430" type="line"/>
      <point x="1101" y="1430" type="line"/>
      <point x="426" y="703" type="line"/>
    </contour>
    <contour>
      <point x="1060" y="0" type="line"/>
      <point x="1500" y="0" type="line"/>
      <point x="808" y="739" type="line"/>
      <point x="385" y="722" type="line"/>
    </contour>
  </outline>
</glyph>
<glyph name="El-cy" format="2">
  <advance width="1635"/>
  <unicode hex="041B"/>
  <outline>
    <contour>
      <point x="513" y="1437" type="line"/>
      <point x="513" y="1022"/>
      <point x="509" y="826"/>
      <point x="495" y="670" type="curve" smooth="yes"/>
      <point x="451" y="191"/>
      <point x="289" y="196"/>
      <point x="163" y="196" type="curve" smooth="yes"/>
      <point x="104" y="196" type="line"/>
      <point x="104" y="0" type="line"/>
      <point x="214" y="0" type="line" smooth="yes"/>
      <point x="459" y="0"/>
      <point x="627" y="139"/>
      <point x="678" y="644" type="curve" smooth="yes"/>
      <point x="697" y="835"/>
      <point x="705" y="1140"/>
      <point x="706" y="1346" type="curve"/>
      <point x="536" y="1241" type="line"/>
      <point x="1279" y="1241" type="line"/>
      <point x="1110" y="1410" type="line"/>
      <point x="1110" y="0" type="line"/>
      <point x="1497" y="1" type="line"/>
      <point x="1497" y="1437" type="line"/>
    </contour>
  </outline>
</glyph>
<glyph name="Pe-cy" format="2">
  <advance width="1530"/>
  <unicode hex="041F"/>
  <anchor x="1510" y="0" name="bottomright"/>
  <outline>
    <contour>
      <point x="138" y="0" type="line"/>
      <point x="514" y="0" type="line"/>
      <point x="514" y="1241" type="line"/>
      <point x="1016" y="1241" type="line"/>
      <point x="1016" y="0" type="line"/>
      <point x="1392" y="0" type="line"/>
      <point x="1392" y="1437" type="line"/>
      <point x="138" y="1437" type="line"/>
    </contour>
  </outline>
</glyph>
<glyph name="Sha-cy" format="2">
  <advance width="1881"/>
  <unicode hex="0428"/>
  <outline>
    <contour>
      <point x="138" y="0" type="line"/>
      <point x="1743" y="0" type="line"/>
      <point x="1743" y="1437" type="line"/>
      <point x="1387" y="1437" type="line"/>
      <point x="1387" y="196" type="line"/>
      <point x="494" y="196" type="line"/>
      <point x="494" y="1437" type="line"/>
      <point x="138" y="1437" type="line"/>
    </contour>
    <contour>
      <point x="757" y="0" type="line"/>
      <point x="1124" y="0" type="line"/>
      <point x="1124" y="1437" type="line"/>
      <point x="757" y="1437" type="line"/>
    </contour>
  </outline>
</glyph>
<glyph name="ve-cy" format="2">
  <advance width="1219"/>
  <unicode hex="0432"/>
  <outline>
    <contour>
      <point x="106" y="0" type="line"/>
      <point x="649" y="0" type="line" smooth="yes"/>
      <point x="971" y="0"/>
      <point x="1142" y="54"/>
      <point x="1142" y="283" type="curve" smooth="yes"/>
      <point x="1142" y="452"/>
      <point x="1049" y="540"/>
      <point x="850" y="581" type="curve"/>
      <point x="836" y="481" type="line"/>
      <point x="1008" y="533"/>
      <point x="1095" y="634"/>
      <point x="1095" y="758" type="curve" smooth="yes"/>
      <point x="1095" y="947"/>
      <point x="894" y="1016"/>
      <point x="636" y="1016" type="curve" smooth="yes"/>
      <point x="106" y="1016" type="line"/>
    </contour>
    <contour>
      <point x="486" y="7" type="line"/>
      <point x="486" y="580" type="line"/>
      <point x="416" y="449" type="line"/>
      <point x="646" y="449" type="line" smooth="yes"/>
      <point x="736" y="449"/>
      <point x="786" y="406"/>
      <point x="787" y="319" type="curve" smooth="yes"/>
      <point x="788" y="231"/>
      <point x="737" y="178"/>
      <point x="643" y="178" type="curve" smooth="yes"/>
      <point x="201" y="178" type="line"/>
    </contour>
    <contour>
      <point x="486" y="475" type="line"/>
      <point x="486" y="993" type="line"/>
      <point x="216" y="842" type="line"/>
      <point x="612" y="842" type="line" smooth="yes"/>
      <point x="694" y="842"/>
      <point x="732" y="799"/>
      <point x="732" y="720" type="curve" smooth="yes"/>
      <point x="732" y="638"/>
      <point x="692" y="607"/>
      <point x="605" y="607" type="curve" smooth="yes"/>
      <point x="465" y="607" type="line"/>
    </contour>
  </outline>
</glyph>
<glyph name="zhe-cy" format="2">
  <advance width="1690"/>
  <unicode hex="0436"/>
  <anchor x="1670" y="0" name="bottomright"/>
  <anchor x="845" y="1016" name="top"/>
  <outline>
    <contour>
      <point x="1310" y="0" type="line"/>
      <point x="1619" y="0" type="line"/>
      <point x="1213" y="624" type="line"/>
      <point x="997" y="510" type="line"/>
    </contour>
    <contour>
      <point x="690" y="0" type="line"/>
      <point x="1000" y="0" type="line"/>
      <point x="1000" y="1016" type="line"/>
      <point x="690" y="1016" type="line"/>
    </contour>
    <contour>
      <point x="780" y="436" type="line"/>
      <point x="1249" y="436" type="line"/>
      <point x="1249" y="637" type="line"/>
      <point x="780" y="637" type="line"/>
    </contour>
    <contour>
      <point x="1042" y="558" type="line"/>
      <point x="1261" y="485" type="line"/>
      <point x="1605" y="1016" type="line"/>
      <point x="1334" y="1016" type="line"/>
    </contour>
    <contour>
      <point x="381" y="0" type="line"/>
      <point x="693" y="510" type="line"/>
      <point x="477" y="624" type="line"/>
      <point x="71" y="0" type="line"/>
    </contour>
    <contour>
      <point x="910" y="436" type="line"/>
      <point x="910" y="637" type="line"/>
      <point x="443" y="637" type="line"/>
      <point x="443" y="436" type="line"/>
    </contour>
    <contour>
      <point x="649" y="558" type="line"/>
      <point x="356" y="1016" type="line"/>
      <point x="85" y="1016" type="line"/>
      <point x="430" y="485" type="line"/>
    </contour>
  </outline>
</glyph>
<glyph name="ka-cy" format="2">
  <advance width="1282"/>
  <unicode hex="043A"/>
  <anchor x="1262" y="0" name="bottomright"/>
  <anchor x="641" y="1016" name="top"/>
  <outline>
    <contour>
      <point x="106" y="0" type="line"/>
      <point x="484" y="0" type="line"/>
      <point x="484" y="1016" type="line"/>
      <point x="106" y="1016" type="line"/>
    </contour>
    <contour>
      <point x="727" y="487" type="line"/>
      <point x="1194" y="1016" type="line"/>
      <point x="882" y="1016" type="line"/>
      <point x="464" y="525" type="line"/>
    </contour>
    <contour>
      <point x="811" y="0" type="line"/>
      <point x="1211" y="0" type="line"/>
      <point x="778" y="547" type="line"/>
      <point x="411" y="537" type="line"/>
    </contour>
  </outline>
</glyph>
<glyph name="el-cy" format="2">
  <advance width="1277"/>
  <unicode hex="043B"/>
  <outline>
    <contour>
      <point x="793" y="0" type="line"/>
      <point x="1171" y="0" type="line"/>
      <point x="1171" y="1016" type="line"/>
      <point x="367" y="1016" type="line"/>
      <point x="367" y="815" type="line"/>
      <point x="1144" y="815" type="line"/>
      <point x="793" y="1002" type="line"/>
    </contour>
    <contour>
      <point x="77" y="0" type="line"/>
      <point x="191" y="0" type="line" smooth="yes"/>
      <point x="347" y="0"/>
      <point x="530" y="9"/>
      <point x="550" y="570" type="curve" smooth="yes"/>
      <point x="552" y="627"/>
      <point x="559" y="880"/>
      <point x="559" y="996" type="curve"/>
      <point x="367" y="996" type="line"/>
      <point x="369" y="891"/>
      <point x="365" y="644"/>
      <point x="364" y="589" type="curve" smooth="yes"/>
      <point x="354" y="202"/>
      <point x="224" y="210"/>
      <point x="119" y="210" type="curve" smooth="yes"/>
      <point x="77" y="210" type="line"/>
    </contour>
  </outline>
</glyph>
<glyph name="em-cy" format="2">
  <advance width="1466"/>
  <unicode hex="043C"/>
  <outline>
    <contour>
      <point x="107" y="0" type="line"/>
      <point x="437" y="0" type="line"/>
      <point x="437" y="679" type="line"/>
      <point x="273" y="715" type="line"/>
      <point x="733" y="40" type="line"/>
      <point x="1193" y="715" type="line"/>
      <point x="1029" y="679" type="line"/>
      <point x="1029" y="0" type="line"/>
      <point x="1359" y="0" type="line"/>
      <point x="1359" y="1043" type="line"/>
      <point x="1087" y="1043" type="line"/>
      <point x="720" y="488" type="line"/>
      <point x="736" y="488" type="line"/>
      <point x="369" y="1043" type="line"/>
      <point x="107" y="1043" type="line"/>
    </contour>
  </outline>
</glyph>
<glyph name="en-cy" format="2">
  <advance width="1352"/>
  <unicode hex="043D"/>
  <anchor x="1332" y="0" name="bottomright"/>
  <outline>
    <contour>
      <point x="106" y="0" type="line"/>
      <point x="484" y="0" type="line"/>
      <point x="484" y="633" type="line"/>
      <point x="169" y="435" type="line"/>
      <point x="1188" y="435" type="line"/>
      <point x="868" y="633" type="line"/>
      <point x="868" y="0" type="line"/>
      <point x="1246" y="0" type="line"/>
      <point x="1246" y="1016" type="line"/>
      <point x="868" y="1016" type="line"/>
      <point x="868" y="411" type="line"/>
      <point x="1188" y="610" type="line"/>
      <point x="169" y="610" type="line"/>
      <point x="484" y="411" type="line"/>
      <point x="484" y="1016" type="line"/>
      <point x="106" y="1016" type="line"/>
    </contour>
  </outline>
</glyph>
<glyph name="ef-cy" format="2">
  <advance width="1752"/>
  <unicode hex="0444"/>
  <outline>
    <contour>
      <point x="1107" y="-36" type="curve" smooth="yes"/>
      <point x="1491" y="-36"/>
      <point x="1670" y="135"/>
      <point x="1670" y="497" type="curve" smooth="yes"/>
      <point x="1670" y="859"/>
      <point x="1491" y="1030"/>
      <point x="1107" y="1030" type="curve" smooth="yes"/>
      <point x="1081" y="1030"/>
      <point x="1053" y="1028"/>
      <point x="1026" y="1025" type="curve"/>
      <point x="1023" y="846" type="line"/>
      <point x="1061" y="867"/>
      <point x="1074" y="870"/>
      <point x="1107" y="870" type="curve" smooth="yes"/>
      <point x="1200" y="870"/>
      <point x="1320" y="734"/>
      <point x="1320" y="497" type="curve" smooth="yes"/>
      <point x="1320" y="260"/>
      <point x="1200" y="124"/>
      <point x="1107" y="124" type="curve" smooth="yes"/>
      <point x="1074" y="124"/>
      <point x="1061" y="127"/>
      <point x="1023" y="148" type="curve"/>
      <point x="1026" y="-31" type="line"/>
      <point x="1053" y="-34"/>
      <point x="1081" y="-36"/>
    </contour>
    <contour>
      <point x="645" y="-36" type="curve" smooth="yes"/>
      <point x="671" y="-36"/>
      <point x="699" y="-34"/>
      <point x="726" y="-31" type="curve"/>
      <point x="729" y="148" type="line"/>
      <point x="691" y="127"/>
      <point x="678" y="124"/>
      <point x="645" y="124" type="curve" smooth="yes"/>
      <point x="552" y="124"/>
      <point x="432" y="260"/>
      <point x="432" y="497" type="curve" smooth="yes"/>
      <point x="432" y="734"/>
      <point x="552" y="870"/>
      <point x="645" y="870" type="curve" smooth="yes"/>
      <point x="678" y="870"/>
      <point x="691" y="867"/>
      <point x="729" y="846" type="curve"/>
      <point x="726" y="1025" type="line"/>
      <point x="699" y="1028"/>
      <point x="671" y="1030"/>
      <point x="645" y="1030" type="curve" smooth="yes"/>
      <point x="261" y="1030"/>
      <point x="82" y="859"/>
      <point x="82" y="497" type="curve" smooth="yes"/>
      <point x="82" y="135"/>
      <point x="261" y="-36"/>
    </contour>
    <contour>
      <point x="710" y="-526" type="line"/>
      <point x="1042" y="-526" type="line"/>
      <point x="1042" y="1524" type="line"/>
      <point x="710" y="1524" type="line"/>
    </contour>
  </outline>
</glyph>
<glyph name="tse-cy" format="2">
  <advance width="1500"/>
  <unicode hex="0446"/>
  <anchor x="1262" y="1016" name="bottomright"/>
  <outline>
    <contour>
      <point x="1417" y="0" type="line"/>
      <point x="1417" y="201" type="line"/>
      <point x="1129" y="201" type="line"/>
      <point x="1129" y="0" type="line"/>
    </contour>
    <component base="pe-cy" yScale="-1" yOffset="1016"/>
    <component base="_cyrillicdescender01" xScale="-1" xOffset="1458"/>
  </outline>
</glyph>
<glyph name="sha-cy" format="2">
  <advance width="1607"/>
  <unicode hex="0448"/>
  <anchor x="1663" y="0" name="bottomright"/>
  <outline>
    <contour>
      <point x="106" y="0" type="line"/>
      <point x="1501" y="0" type="line"/>
      <point x="1501" y="1016" type="line"/>
      <point x="1155" y="1016" type="line"/>
      <point x="1155" y="201" type="line"/>
      <point x="452" y="201" type="line"/>
      <point x="452" y="1016" type="line"/>
      <point x="106" y="1016" type="line"/>
    </contour>
    <contour>
      <point x="634" y="0" type="line"/>
      <point x="974" y="0" type="line"/>
      <point x="974" y="1016" type="line"/>
      <point x="634" y="1016" type="line"/>
    </contour>
  </outline>
</glyph>
<glyph name="softsign-cy" format="2">
  <advance width="1125"/>
  <unicode hex="044C"/>
  <outline>
    <contour>
      <point x="106" y="0" type="line"/>
      <point x="626" y="-4" type="line" smooth="yes"/>
      <point x="872" y="-6"/>
      <point x="1047" y="129"/>
      <point x="1047" y="373" type="curve" smooth="yes"/>
      <point x="1047" y="618"/>
      <point x="880" y="752"/>
      <point x="628" y="752" type="curve" smooth="yes"/>
      <point x="320" y="752" type="line"/>
      <point x="484" y="670" type="line"/>
      <point x="484" y="1016" type="line"/>
      <point x="107" y="1016" type="line"/>
    </contour>
    <contour>
      <point x="484" y="13" type="line"/>
      <point x="484" y="732" type="line"/>
      <point x="408" y="584" type="line"/>
      <point x="539" y="585" type="line" smooth="yes"/>
      <point x="636" y="586"/>
      <point x="690" y="504"/>
      <point x="690" y="373" type="curve" smooth="yes"/>
      <point x="690" y="243"/>
      <point x="636" y="168"/>
      <point x="539" y="168" type="curve" smooth="yes"/>
      <point x="147" y="167" type="line"/>
    </contour>
  </outline>
</glyph>
<glyph name="ia-cy" format="2">
  <advance width="1175"/>
  <unicode hex="044F"/>
  <anchor x="588" y="1016" name="top"/>
  <outline>
    <contour>
      <point x="710" y="0" type="line"/>
      <point x="1069" y="0" type="line"/>
      <point x="1069" y="1016" type="line"/>
      <point x="615" y="1016" type="line" smooth="yes"/>
      <point x="328" y="1016"/>
      <point x="127" y="892"/>
      <point x="127" y="690" type="curve" smooth="yes"/>
      <point x="127" y="462"/>
      <point x="383" y="363"/>
      <point x="605" y="363" type="curve"/>
      <point x="614" y="363" type="line"/>
      <point x="876" y="375" type="line"/>
      <point x="710" y="501" type="line"/>
    </contour>
    <contour>
      <point x="710" y="389" type="line"/>
      <point x="784" y="522" type="line"/>
      <point x="595" y="522" type="line" smooth="yes"/>
      <point x="504" y="522"/>
      <point x="454" y="576"/>
      <point x="454" y="680" type="curve" smooth="yes"/>
      <point x="454" y="785"/>
      <point x="504" y="835"/>
      <point x="595" y="835" type="curve" smooth="yes"/>
      <point x="1045" y="835" type="line"/>
      <point x="710" y="1016" type="line"/>
    </contour>
    <contour>
      <point x="72" y="0" type="curve"/>
      <point x="421" y="0" type="line"/>
      <point x="432" y="42"/>
      <point x="434" y="66"/>
      <point x="454" y="124" type="curve" smooth="yes"/>
      <point x="490" y="231"/>
      <point x="522" y="294"/>
      <point x="572" y="331" type="curve" smooth="yes"/>
      <point x="629" y="373"/>
      <point x="700" y="374"/>
      <point x="781" y="375" type="curve"/>
      <point x="399" y="422" type="line"/>
      <point x="349" y="422"/>
      <point x="275" y="403"/>
      <point x="226" y="357" type="curve" smooth="yes"/>
      <point x="190" y="324"/>
      <point x="153" y="287"/>
      <point x="120" y="174" type="curve" smooth="yes"/>
      <point x="108" y="133"/>
      <point x="90" y="56"/>
    </contour>
  </outline>
</glyph>
<glyph name="Yat-cy" format="2">
  <advance width="1407"/>
  <unicode hex="0462"/>
  <outline>
    <contour>
      <point x="315" y="-1" type="line"/>
      <point x="798" y="-5" type="line" smooth="yes"/>
      <point x="947" y="-5"/>
      <point x="1057" y="27"/>
      <point x="1165" y="99" type="curve" smooth="yes"/>
      <point x="1253" y="158"/>
      <point x="1315" y="291"/>
      <point x="1315" y="408" type="curve" smooth="yes"/>
      <point x="1315" y="524"/>
      <point x="1253" y="658"/>
      <point x="1165" y="716" type="curve" smooth="yes"/>
      <point x="1057" y="788"/>
      <point x="947" y="818"/>
      <point x="798" y="820" type="curve" smooth="yes"/>
      <point x="601" y="823" type="line"/>
      <point x="691" y="690" type="line"/>
      <point x="691" y="1437" type="line"/>
      <point x="315" y="1437" type="line"/>
    </contour>
    <contour>
      <point x="691" y="18" type="line"/>
      <point x="691" y="762" type="line"/>
      <point x="601" y="648" type="line"/>
      <point x="778" y="648" type="line" smooth="yes"/>
      <point x="912" y="648"/>
      <point x="992" y="536"/>
      <point x="992" y="408" type="curve" smooth="yes"/>
      <point x="992" y="279"/>
      <point x="912" y="169"/>
      <point x="778" y="168" type="curve" smooth="yes"/>
      <point x="504" y="166" type="line"/>
    </contour>
    <contour>
      <point x="104" y="1133" type="line"/>
      <point x="889" y="1133" type="line"/>
      <point x="889" y="1329" type="line"/>
      <point x="104" y="1329" type="line"/>
    </contour>
  </outline>
</glyph>
<glyph name="yat-cy" format="2">
  <advance width="1257"/>
  <unicode hex="0463"/>
  <anchor x="431" y="1152" name="center"/>
  <outline>
    <contour>
      <point x="238" y="0" type="line"/>
      <point x="758" y="-4" type="line" smooth="yes"/>
      <point x="1004" y="-6"/>
      <point x="1179" y="129"/>
      <point x="1179" y="373" type="curve" smooth="yes"/>
      <point x="1179" y="618"/>
      <point x="1012" y="752"/>
      <point x="760" y="752" type="curve" smooth="yes"/>
      <point x="452" y="752" type="line"/>
      <point x="616" y="670" type="line"/>
      <point x="616" y="1524" type="line"/>
      <point x="239" y="1524" type="line"/>
    </contour>
    <contour>
      <point x="616" y="13" type="line"/>
      <point x="616" y="732" type="line"/>
      <point x="540" y="584" type="line"/>
      <point x="671" y="585" type="line" smooth="yes"/>
      <point x="768" y="586"/>
      <point x="822" y="504"/>
      <point x="822" y="373" type="curve" smooth="yes"/>
      <point x="822" y="243"/>
      <point x="768" y="168"/>
      <point x="671" y="168" type="curve" smooth="yes"/>
      <point x="279" y="167" type="line"/>
    </contour>
    <component base="_cyrillic_bar" xOffset="75" yOffset="721"/>
  </outline>
</glyph>
<glyph name="emdash" format="2">
  <advance width="1757"/>
  <unicode hex="2014"/>
  <note>
emdash
</note>
  <outline>
    <contour>
      <point x="75" y="401" type="line"/>
      <point x="1564" y="401" type="line"/>
      <point x="1682" y="712" type="line"/>
      <point x="191" y="712" type="line"/>
    </contour>
  </outline>
</glyph>
<glyph name="dagger" format="2">
  <advance width="1328"/>
  <unicode hex="2020"/>
  <note>
dagger
</note>
  <outline>
    <contour>
      <point x="664" y="-300" type="curve" smooth="yes"/>
      <point x="748" y="-300"/>
      <point x="809" y="-237"/>
      <point x="809" y="-152" type="curve" smooth="yes"/>
      <point x="809" y="500" type="line" smooth="yes"/>
      <point x="809" y="705"/>
      <point x="759" y="955"/>
      <point x="725" y="921" type="curve" smooth="yes"/>
      <point x="691" y="887"/>
      <point x="849" y="836"/>
      <point x="1051" y="836" type="curve" smooth="yes"/>
      <point x="1136" y="836"/>
      <point x="1199" y="874"/>
      <point x="1199" y="926" type="curve" smooth="yes"/>
      <point x="1199" y="978"/>
      <point x="1136" y="1016"/>
      <point x="1051" y="1016" type="curve" smooth="yes"/>
      <point x="829" y="1016"/>
      <point x="684" y="973"/>
      <point x="725" y="932" type="curve" smooth="yes"/>
      <point x="766" y="891"/>
      <point x="809" y="1045"/>
      <point x="809" y="1216" type="curve" smooth="yes"/>
      <point x="809" y="1301"/>
      <point x="748" y="1404"/>
      <point x="664" y="1404" type="curve" smooth="yes"/>
      <point x="580" y="1404"/>
      <point x="519" y="1301"/>
      <point x="519" y="1216" type="curve" smooth="yes"/>
      <point x="519" y="1045"/>
      <point x="562" y="891"/>
      <point x="603" y="932" type="curve" smooth="yes"/>
      <point x="644" y="973"/>
      <point x="499" y="1016"/>
      <point x="277" y="1016" type="curve" smooth="yes"/>
      <point x="192" y="1016"/>
      <point x="129" y="978"/>
      <point x="129" y="926" type="curve" smooth="yes"/>
      <point x="129" y="874"/>
      <point x="192" y="836"/>
      <point x="277" y="836" type="curve" smooth="yes"/>
      <point x="479" y="836"/>
      <point x="637" y="887"/>
      <point x="603" y="921" type="curve" smooth="yes"/>
      <point x="569" y="955"/>
      <point x="519" y="705"/>
      <point x="519" y="500" type="curve" smooth="yes"/>
      <point x="519" y="-152" type="line" smooth="yes"/>
      <point x="519" y="-237"/>
      <point x="580" y="-300"/>
    </contour>
  </outline>
</glyph>
<glyph name="liraTurkish" format="2">
  <advance width="1563"/>
  <unicode hex="20BA"/>
  <outline>
    <contour>
      <point x="398" y="0" type="line"/>
      <point x="1129" y="0"/>
      <point x="1347" y="-7"/>
      <point x="1420" y="562" type="curve"/>
      <point x="1197" y="562" type="line"/>
      <point x="1189" y="110"/>
      <point x="854" y="230"/>
      <point x="458" y="215" type="curve"/>
      <point x="758" y="25" type="line"/>
      <point x="758" y="1435" type="line"/>
      <point x="398" y="1435" type="line"/>
    </contour>
    <contour>
      <point x="251" y="214" type="line"/>
      <point x="1056" y="663" type="line"/>
      <point x="947" y="834" type="line"/>
      <point x="143" y="383" type="line"/>
    </contour>
    <contour>
      <point x="251" y="603" type="line"/>
      <point x="1056" y="1054" type="line"/>
      <point x="947" y="1224" type="line"/>
      <point x="143" y="773" type="line"/>
    </contour>
  </outline>
</glyph>
<glyph name="trademark" format="2">
  <advance width="1399"/>
  <unicode hex="2122"/>
  <note>
trademark
</note>
  <outline>
    <contour>
      <point x="685" y="900" type="line"/>
      <point x="765" y="900" type="line"/>
      <point x="765" y="1348" type="line"/>
      <point x="941" y="900" type="line"/>
      <point x="993" y="900" type="line"/>
      <point x="1161" y="1348" type="line"/>
      <point x="1161" y="900" type="line"/>
      <point x="1241" y="900" type="line"/>
      <point x="1241" y="1422" type="line"/>
      <point x="1113" y="1422" type="line"/>
      <point x="967" y="1026" type="line"/>
      <point x="811" y="1422" type="line"/>
      <point x="685" y="1422" type="line"/>
    </contour>
    <contour>
      <point x="303" y="900" type="line"/>
      <point x="395" y="900" type="line"/>
      <point x="395" y="1356" type="line"/>
      <point x="563" y="1356" type="line"/>
      <point x="563" y="1422" type="line"/>
      <point x="133" y="1422" type="line"/>
      <point x="133" y="1356" type="line"/>
      <point x="303" y="1356" type="line"/>
    </contour>
  </outline>
</glyph>
<glyph name="approxequal" format="2">
  <advance width="1188"/>
  <unicode hex="2248"/>
  <note>
approxequal
</note>
  <outline>
    <contour>
      <point x="1012" y="621" type="curve" smooth="yes"/>
      <point x="1184" y="621"/>
      <point x="1400" y="750"/>
      <point x="1458" y="759" type="curve"/>
      <point x="1304" y="1005" type="line"/>
      <point x="1196" y="947"/>
      <point x="1101" y="919"/>
      <point x="1013" y="919" type="curve" smooth="yes"/>
      <point x="930" y="919"/>
      <point x="872" y="957"/>
      <point x="833" y="976" type="curve" smooth="yes"/>
      <point x="726" y="1026"/>
      <point x="637" y="1052"/>
      <point x="568" y="1052" type="curve" smooth="yes"/>
      <point x="462" y="1052"/>
      <point x="274" y="977"/>
      <point x="132" y="876" type="curve"/>
      <point x="277" y="643" type="line"/>
      <point x="431" y="738"/>
      <point x="515" y="755"/>
      <point x="566" y="755" type="curve" smooth="yes"/>
      <point x="613" y="755"/>
      <point x="686" y="733"/>
      <point x="766" y="694" type="curve" smooth="yes"/>
      <point x="872" y="641"/>
      <point x="932" y="621"/>
    </contour>
    <contour>
      <point x="1012" y="241" type="curve" smooth="yes"/>
      <point x="1185" y="241"/>
      <point x="1399" y="372"/>
      <point x="1458" y="380" type="curve"/>
      <point x="1304" y="626" type="line"/>
      <point x="1195" y="568"/>
      <point x="1100" y="539"/>
      <point x="1013" y="539" type="curve" smooth="yes"/>
      <point x="932" y="539"/>
      <point x="875" y="574"/>
      <point x="832" y="595" type="curve" smooth="yes"/>
      <point x="727" y="646"/>
      <point x="636" y="672"/>
      <point x="568" y="672" type="curve" smooth="yes"/>
      <point x="462" y="672"/>
      <point x="276" y="598"/>
      <point x="132" y="497" type="curve"/>
      <point x="277" y="264" type="line"/>
      <point x="431" y="359"/>
      <point x="517" y="376"/>
      <point x="566" y="376" type="curve" smooth="yes"/>
      <point x="634" y="376"/>
      <point x="746" y="324"/>
      <point x="766" y="314" type="curve" smooth="yes"/>
      <point x="873" y="262"/>
      <point x="937" y="241"/>
    </contour>
  </outline>
</glyph>
<glyph name="fi" format="2">
  <advance width="1297"/>
  <unicode hex="F001"/>
  <note>
fi
</note>
  <anchor x="563.5" y="0" name="caret_1"/>
  <outline>
    <contour>
      <point x="293" y="0" type="line"/>
      <point x="655" y="0" type="line"/>
      <point x="655" y="922" type="line"/>
      <point x="486" y="753" type="line"/>
      <point x="923" y="753" type="line"/>
      <point x="923" y="956" type="line"/>
      <point x="486" y="956" type="line"/>
      <point x="655" y="787" type="line"/>
      <point x="655" y="978" type="line" smooth="yes"/>
      <point x="655" y="1138"/>
      <point x="569" y="1352"/>
      <point x="762" y="1352" type="curve" smooth="yes"/>
      <point x="764" y="1352"/>
      <point x="939" y="1348"/>
      <point x="939" y="1289" type="curve" smooth="yes"/>
      <point x="939" y="1268"/>
      <point x="936" y="1242"/>
      <point x="925" y="1225" type="curve"/>
      <point x="1144" y="1225" type="line"/>
      <point x="1158" y="1233"/>
      <point x="1183" y="1268"/>
      <point x="1183" y="1326" type="curve" smooth="yes"/>
      <point x="1183" y="1483"/>
      <point x="1018" y="1571"/>
      <point x="720" y="1571" type="curve" smooth="yes"/>
      <point x="435" y="1571"/>
      <point x="293" y="1436"/>
      <point x="293" y="1093" type="curve" smooth="yes"/>
      <point x="293" y="787" type="line"/>
      <point x="462" y="956" type="line"/>
      <point x="77" y="956" type="line"/>
      <point x="77" y="753" type="line"/>
      <point x="462" y="753" type="line"/>
      <point x="293" y="922" type="line"/>
    </contour>
    <contour>
      <point x="838" y="0" type="line"/>
      <point x="1199" y="0" type="line"/>
      <point x="1199" y="956" type="line"/>
      <point x="838" y="956" type="line"/>
    </contour>
  </outline>
</glyph>
<glyph name="W.rvrn" format="2">
  <advance width="2150"/>
  <note>
W
</note>
  <anchor x="1089" y="50" name="bottom"/>
  <anchor x="1089" y="1430" name="top"/>
  <outline>
    <contour>
      <point x="1446" y="-14" type="line"/>
      <point x="2050" y="1437" type="line"/>
      <point x="1889" y="1437" type="line"/>
      <point x="1440" y="386" type="line"/>
      <point x="1545" y="561" type="line"/>
      <point x="1128" y="1437" type="line"/>
      <point x="744" y="1437" type="line"/>
    </contour>
    <contour>
      <point x="795" y="-14" type="line"/>
      <point x="1169" y="889" type="line"/>
      <point x="1115" y="1165" type="line"/>
      <point x="791" y="389" type="line"/>
      <point x="904" y="548" type="line"/>
      <point x="485" y="1437" type="line"/>
      <point x="100" y="1437" type="line"/>
    </contour>
  </outline>
</glyph>
<glyph name="_cyrillic_bar" format="2">
  <advance width="714"/>
  <anchor x="357" y="431" name="_center"/>
  <outline>
    <contour>
      <point x="0" y="330" type="line"/>
      <point x="714" y="330" type="line"/>
      <point x="714" y="531" type="line"/>
      <point x="0" y="531" type="line"/>
    </contour>
  </outline>
</glyph>
<glyph name="_cyrillicdescender01" format="2">
  <advance width="1393"/>
  <outline>
    <contour>
      <point x="225" y="0" type="line"/>
      <point x="41" y="0" type="line"/>
      <point x="45" y="-236" type="line"/>
      <point x="220" y="-236" type="line"/>
    </contour>
  </outline>
</glyph>
<glyph name="brevecomb-cy" format="2">
  <anchor x="437" y="1016" name="_top"/>
  <outline>
    <contour>
      <point x="438" y="1098" type="curve" smooth="yes"/>
      <point x="712" y="1098"/>
      <point x="811" y="1179"/>
      <point x="859" y="1433" type="curve"/>
      <point x="717" y="1433" type="line"/>
      <point x="635" y="1269"/>
      <point x="588" y="1232"/>
      <point x="438" y="1232" type="curve" smooth="yes"/>
      <point x="289" y="1232"/>
      <point x="230" y="1269"/>
      <point x="146" y="1433" type="curve"/>
      <point x="14" y="1433" type="line"/>
      <point x="58" y="1179"/>
      <point x="165" y="1098"/>
    </contour>
  </outline>
</glyph>
<glyph name="currency_horz_stroke_xlong.case" format="2">
  <advance width="1946"/>
  <anchor x="973" y="0" name="_bottom"/>
  <outline>
    <contour>
      <point x="0" y="826" type="line"/>
      <point x="1946" y="826" type="line"/>
      <point x="1946" y="992" type="line"/>
      <point x="0" y="992" type="line"/>
    </contour>
  </outline>
</glyph>
<glyph name="f_f_i" format="2">
  <advance width="1842"/>
  <anchor x="557.333" y="0" name="caret_1"/>
  <anchor x="1114.667" y="0" name="caret_2"/>
  <outline>
    <contour>
      <point x="838" y="0" type="line"/>
      <point x="1200" y="0" type="line"/>
      <point x="1200" y="978" type="line" smooth="yes"/>
      <point x="1200" y="1138"/>
      <point x="1114" y="1352"/>
      <point x="1307" y="1352" type="curve" smooth="yes"/>
      <point x="1309" y="1352"/>
      <point x="1484" y="1348"/>
      <point x="1484" y="1289" type="curve" smooth="yes"/>
      <point x="1484" y="1268"/>
      <point x="1481" y="1242"/>
      <point x="1470" y="1225" type="curve"/>
      <point x="1689" y="1225" type="line"/>
      <point x="1703" y="1233"/>
      <point x="1728" y="1268"/>
      <point x="1728" y="1326" type="curve" smooth="yes"/>
      <point x="1728" y="1483"/>
      <point x="1563" y="1571"/>
      <point x="1265" y="1571" type="curve" smooth="yes"/>
      <point x="980" y="1571"/>
      <point x="838" y="1436"/>
      <point x="838" y="1093" type="curve"/>
    </contour>
    <contour>
      <point x="293" y="0" type="line"/>
      <point x="655" y="0" type="line"/>
      <point x="655" y="839" type="line" smooth="yes"/>
      <point x="655" y="999"/>
      <point x="559" y="1213"/>
      <point x="712" y="1213" type="curve" smooth="yes"/>
      <point x="754" y="1213"/>
      <point x="838" y="1209"/>
      <point x="838" y="1130" type="curve"/>
      <point x="838" y="1036" type="line"/>
      <point x="1044" y="1036" type="line"/>
      <point x="1058" y="1064"/>
      <point x="1066" y="1129"/>
      <point x="1066" y="1164" type="curve" smooth="yes"/>
      <point x="1066" y="1341"/>
      <point x="871" y="1432"/>
      <point x="670" y="1432" type="curve" smooth="yes"/>
      <point x="425" y="1432"/>
      <point x="293" y="1297"/>
      <point x="293" y="954" type="curve" smooth="yes"/>
    </contour>
    <contour>
      <point x="77" y="753" type="line"/>
      <point x="923" y="753" type="line"/>
      <point x="923" y="956" type="line"/>
      <point x="77" y="956" type="line"/>
    </contour>
    <contour>
      <point x="622" y="753" type="line"/>
      <point x="1468" y="753" type="line"/>
      <point x="1468" y="956" type="line"/>
      <point x="622" y="956" type="line"/>
    </contour>
    <contour>
      <point x="1383" y="0" type="line"/>
      <point x="1744" y="0" type="line"/>
      <point x="1744" y="956" type="line"/>
      <point x="1383" y="956" type="line"/>
    </contour>
  </outline>
</glyph>
<glyph name="one.tf" format="2">
  <advance width="1300"/>
  <outline>
    <contour>
      <point x="473" y="0" type="line"/>
      <point x="841" y="0" type="line"/>
      <point x="841" y="1420" type="line"/>
      <point x="663" y="1420" type="line"/>
      <point x="219" y="856" type="line"/>
      <point x="319" y="769" type="line"/>
      <point x="532" y="971" type="line"/>
      <point x="473" y="1033" type="line"/>
    </contour>
    <contour>
      <point x="233" y="0" type="line"/>
      <point x="1081" y="0" type="line"/>
      <point x="1081" y="257" type="line"/>
      <point x="233" y="257" type="line"/>
    </contour>
  </outline>
</glyph>
<glyph name="seven.dnom" format="2">
  <advance width="823"/>
  <note>
seven
</note>
  <outline>
    <contour>
      <point x="184" y="0" type="curve"/>
      <point x="447" y="0" type="line"/>
      <point x="552" y="383"/>
      <point x="740" y="734"/>
      <point x="831" y="943" type="curve"/>
      <point x="8" y="943" type="line"/>
      <point x="8" y="708" type="line"/>
      <point x="576" y="708" type="line"/>
      <point x="524" y="811" type="line"/>
      <point x="504" y="769"/>
      <point x="335" y="446"/>
    </contour>
  </outline>
</glyph>
<glyph name="seven.osf" format="2">
  <advance width="1392"/>
  <outline>
    <contour>
      <point x="392" y="-328" type="curve"/>
      <point x="661" y="-397" type="line"/>
      <point x="823" y="147"/>
      <point x="1038" y="667"/>
      <point x="1272" y="1063" type="curve"/>
      <point x="130" y="1063" type="line"/>
      <point x="130" y="746" type="line"/>
      <point x="964" y="746" type="line"/>
      <point x="885" y="942" type="line"/>
      <point x="677" y="514"/>
      <point x="548" y="161"/>
    </contour>
  </outline>
</glyph>
<glyph name="six.dnom" format="2">
  <advance width="789"/>
  <note>
six
</note>
  <outline>
    <contour>
      <point x="419" y="-45" type="curve" smooth="yes"/>
      <point x="676" y="-43"/>
      <point x="777" y="73"/>
      <point x="777" y="275" type="curve" smooth="yes"/>
      <point x="777" y="481"/>
      <point x="684" y="617"/>
      <point x="434" y="617" type="curve" smooth="yes"/>
      <point x="393" y="617"/>
      <point x="271" y="617"/>
      <point x="191" y="461" type="curve"/>
      <point x="268" y="544" type="line"/>
      <point x="266" y="560"/>
      <point x="268" y="578"/>
      <point x="271" y="594" type="curve" smooth="yes"/>
      <point x="297" y="734"/>
      <point x="355" y="797"/>
      <point x="555" y="803" type="curve"/>
      <point x="579" y="981" type="line"/>
      <point x="205" y="976"/>
      <point x="99" y="774"/>
      <point x="64" y="643" type="curve" smooth="yes"/>
      <point x="24" y="492"/>
      <point x="29" y="365"/>
      <point x="29" y="308" type="curve" smooth="yes"/>
      <point x="29" y="96"/>
      <point x="213" y="-47"/>
    </contour>
    <contour>
      <point x="411" y="135" type="curve" smooth="yes"/>
      <point x="344" y="135"/>
      <point x="272" y="169"/>
      <point x="272" y="294" type="curve" smooth="yes"/>
      <point x="272" y="411"/>
      <point x="358" y="436"/>
      <point x="416" y="436" type="curve" smooth="yes"/>
      <point x="459" y="436"/>
      <point x="558" y="434"/>
      <point x="558" y="296" type="curve" smooth="yes"/>
      <point x="558" y="171"/>
      <point x="472" y="135"/>
    </contour>
  </outline>
</glyph>
<glyph name="slashlongcomb.case" format="2">
  <anchor x="730.0" y="721.5" name="_center"/>
  <outline>
    <contour>
      <point x="167" y="-55" type="line"/>
      <point x="362" y="-55" type="line"/>
      <point x="1293" y="1498" type="line"/>
      <point x="1099" y="1498" type="line"/>
    </contour>
  </outline>
</glyph>
<glyph name="strokelongcomb.case" format="2">
  <anchor x="741" y="1156.5" name="_center"/>
  <outline>
    <contour>
      <point x="-11" y="1123" type="line"/>
      <point x="1493" y="1123" type="line"/>
      <point x="1493" y="1190" type="line"/>
      <point x="-11" y="1190" type="line"/>
    </contour>
  </outline>
</glyph>
<glyph name="three.dnom" format="2">
  <advance width="872"/>
  <note>
three
</note>
  <outline>
    <contour>
      <point x="413" y="-45" type="curve" smooth="yes"/>
      <point x="692" y="-45"/>
      <point x="845" y="56"/>
      <point x="845" y="255" type="curve" smooth="yes"/>
      <point x="845" y="378"/>
      <point x="788" y="480"/>
      <point x="608" y="490" type="curve"/>
      <point x="608" y="449" type="line"/>
      <point x="693" y="472"/>
      <point x="809" y="539"/>
      <point x="809" y="683" type="curve" smooth="yes"/>
      <point x="809" y="829"/>
      <point x="701" y="971"/>
      <point x="436" y="971" type="curve" smooth="yes"/>
      <point x="165" y="971"/>
      <point x="39" y="822"/>
      <point x="32" y="700" type="curve"/>
      <point x="270" y="698" type="line"/>
      <point x="280" y="768"/>
      <point x="303" y="802"/>
      <point x="413" y="802" type="curve" smooth="yes"/>
      <point x="527" y="802"/>
      <point x="537" y="717"/>
      <point x="537" y="670" type="curve" smooth="yes"/>
      <point x="537" y="544"/>
      <point x="488" y="536"/>
      <point x="422" y="536" type="curve" smooth="yes"/>
      <point x="272" y="536" type="line"/>
      <point x="272" y="414" type="line"/>
      <point x="425" y="414" type="line" smooth="yes"/>
      <point x="499" y="414"/>
      <point x="540" y="379"/>
      <point x="540" y="263" type="curve" smooth="yes"/>
      <point x="540" y="185"/>
      <point x="532" y="114"/>
      <point x="417" y="114" type="curve" smooth="yes"/>
      <point x="326" y="114"/>
      <point x="266" y="134"/>
      <point x="266" y="224" type="curve" smooth="yes"/>
      <point x="266" y="237" type="line"/>
      <point x="10" y="237" type="line"/>
      <point x="10" y="229" type="line" smooth="yes"/>
      <point x="10" y="53"/>
      <point x="138" y="-45"/>
    </contour>
  </outline>
</glyph>
<glyph name="three.osf" format="2">
  <advance width="1341"/>
  <outline>
    <contour>
      <point x="638" y="-328" type="curve" smooth="yes"/>
      <point x="958" y="-328"/>
      <point x="1214" y="-187"/>
      <point x="1214" y="108" type="curve" smooth="yes"/>
      <point x="1214" y="333"/>
      <point x="1067" y="492"/>
      <point x="865" y="470" type="curve"/>
      <point x="721" y="380" type="line"/>
      <point x="1045" y="471"/>
      <point x="1128" y="561"/>
      <point x="1128" y="712" type="curve" smooth="yes"/>
      <point x="1128" y="933"/>
      <point x="951" y="1039"/>
      <point x="679" y="1039" type="curve" smooth="yes"/>
      <point x="339" y="1039"/>
      <point x="146" y="874"/>
      <point x="161" y="697" type="curve"/>
      <point x="405" y="682" type="line"/>
      <point x="403" y="755"/>
      <point x="500" y="861"/>
      <point x="667" y="861" type="curve" smooth="yes"/>
      <point x="790" y="861"/>
      <point x="841" y="804"/>
      <point x="841" y="700" type="curve" smooth="yes"/>
      <point x="841" y="588"/>
      <point x="781" y="503"/>
      <point x="608" y="466" type="curve" smooth="yes"/>
      <point x="400" y="422" type="line"/>
      <point x="448" y="269" type="line"/>
      <point x="640" y="314"/>
      <point x="706" y="310"/>
      <point x="732" y="310" type="curve" smooth="yes"/>
      <point x="877" y="310"/>
      <point x="881" y="158"/>
      <point x="881" y="119" type="curve" smooth="yes"/>
      <point x="881" y="-127"/>
      <point x="678" y="-135"/>
      <point x="604" y="-135" type="curve" smooth="yes"/>
      <point x="362" y="-135"/>
      <point x="304" y="-49"/>
      <point x="270" y="-10" type="curve"/>
      <point x="120" y="-118" type="line"/>
      <point x="221" y="-232"/>
      <point x="374" y="-328"/>
    </contour>
  </outline>
</glyph>
<glyph name="two.dnom" format="2">
  <advance width="917"/>
  <note>
two
</note>
  <outline>
    <contour>
      <point x="2" y="0" type="line"/>
      <point x="887" y="0" type="line"/>
      <point x="887" y="195" type="line"/>
      <point x="351" y="195" type="line"/>
      <point x="329" y="163" type="line"/>
      <point x="521" y="263"/>
      <point x="625" y="344"/>
      <point x="700" y="389" type="curve" smooth="yes"/>
      <point x="740" y="413"/>
      <point x="850" y="500"/>
      <point x="850" y="641" type="curve" smooth="yes"/>
      <point x="850" y="845"/>
      <point x="708" y="969"/>
      <point x="443" y="969" type="curve" smooth="yes"/>
      <point x="177" y="969"/>
      <point x="30" y="837"/>
      <point x="30" y="702" type="curve" smooth="yes"/>
      <point x="30" y="686"/>
      <point x="32" y="712"/>
      <point x="42" y="652" type="curve"/>
      <point x="299" y="660" type="line"/>
      <point x="299" y="686" type="line" smooth="yes"/>
      <point x="299" y="716"/>
      <point x="324" y="806"/>
      <point x="421" y="806" type="curve" smooth="yes"/>
      <point x="553" y="806"/>
      <point x="561" y="737"/>
      <point x="561" y="688" type="curve" smooth="yes"/>
      <point x="561" y="601"/>
      <point x="541" y="498"/>
      <point x="379" y="348" type="curve" smooth="yes"/>
    </contour>
  </outline>
</glyph>
<glyph name="w.rvrn" format="2">
  <advance width="1955"/>
  <note>
w
</note>
  <anchor x="978" y="0" name="bottom"/>
  <anchor x="978" y="1016" name="top"/>
  <outline>
    <contour>
      <point x="1219" y="-25" type="line"/>
      <point x="1331" y="-25" type="line"/>
      <point x="1884" y="1016" type="line"/>
      <point x="1661" y="1016" type="line"/>
      <point x="1342" y="401" type="line"/>
      <point x="1434" y="364" type="line"/>
      <point x="1066" y="1016" type="line"/>
      <point x="677" y="1016" type="line"/>
    </contour>
    <contour>
      <point x="613" y="-25" type="line"/>
      <point x="724" y="-25" type="line"/>
      <point x="1067" y="676" type="line"/>
      <point x="955" y="899" type="line"/>
      <point x="729" y="401" type="line"/>
      <point x="787" y="363" type="line"/>
      <point x="460" y="1016" type="line"/>
      <point x="71" y="1016" type="line"/>
    </contour>
  </outline>
</glyph>
